# xmcd
#
# Track frame offsets:
#	150
#	15630
#	33742
#	47965
#	59922
#	72245
#	89222
#	100797
#	118465
#
# Disc length: 1821
#
# Revision: 1
# Processed by: cddbd v1.5.1PL0 Copyright (c) Steve Scherf et al.
# Submitted via: uFREEDB 1.6.0
# Normalized: r0:TDELIM( - )
#
DISCID=8d071b09
DTITLE=Various Artist - Summer Spectacular
DYEAR=1990
DGENRE=Country
TTITLE0=Merle Haggard - When It Rains It Pours
TTITLE1=Wayne Newton - At This Moment
TTITLE2=Jann Browne - Louisville
TTITLE3=Delbert McClinton - Who's Foolin' Who
TTITLE4=Dale Watson - One Tear At A Time
TTITLE5=The Judds - Born To Be Blue
TTITLE6=Desert Rose Band - Story Of Love
TTITLE7=Ray Stevens - Sittin' Up With The Dead
TTITLE8=Lyle Lovett - Here I Am
EXTD=
EXTT0=
EXTT1=
EXTT2=
EXTT3=
EXTT4=
EXTT5=
EXTT6=
EXTT7=
EXTT8=
PLAYORDER=
